<svg width="32" height="32" viewBox="0 0 32 32" fill="none" xmlns="http://www.w3.org/2000/svg">
<path fill-rule="evenodd" clip-rule="evenodd" d="M9.91072 4H22.0893C22.5915 4 23 4.39458 23 4.87958V13.5652C23 15.2763 22.3101 16.885 21.0573 18.0949C19.9306 19.1831 18.4698 19.8313 16.8984 19.9508V26.3581H20.2445C20.7139 26.3581 21.0945 26.7257 21.0945 27.1791C21.0945 27.6325 20.7139 28 20.2445 28H11.9008C11.4313 28 11.0508 27.6325 11.0508 27.1791C11.0508 26.7257 11.4313 26.3581 11.9008 26.3581H15.1984V19.9573C13.5902 19.8576 12.0925 19.2055 10.9427 18.0949C9.68993 16.885 9 15.2763 9 13.5652V4.87958C9 4.39458 9.40855 4 9.91072 4ZM16.3464 18C18.9124 18 21 15.9885 21 13.5161L21 6H11V13.5161C11 15.9885 13.0875 18 15.6535 18H16.3464Z" fill="#18BB97"/>
</svg>
