<svg width="32" height="32" viewBox="0 0 32 32" fill="none" xmlns="http://www.w3.org/2000/svg">
<path d="M30 2H2V30H30V2Z" fill="white" fill-opacity="0.01"/>
<path d="M16 28C19.3137 28 22.3137 26.6568 24.4853 24.4853C26.6568 22.3137 28 19.3137 28 16C28 12.6863 26.6568 9.68632 24.4853 7.51472C22.3137 5.34315 19.3137 4 16 4C12.6863 4 9.68632 5.34315 7.51472 7.51472C5.34315 9.68632 4 12.6863 4 16C4 19.3137 5.34315 22.3137 7.51472 24.4853C9.68632 26.6568 12.6863 28 16 28Z" stroke="#18BB97" stroke-width="2" stroke-linejoin="round"/>
<path fill-rule="evenodd" clip-rule="evenodd" d="M16 8.41669C16.8054 8.41669 17.4584 9.06961 17.4584 9.87502C17.4584 10.6804 16.8054 11.3334 16 11.3334C15.1946 11.3334 14.5417 10.6804 14.5417 9.87502C14.5417 9.06961 15.1946 8.41669 16 8.41669Z" fill="#18BB97"/>
<path d="M16.2917 21.8334V13.6667H15.7083H15.125" stroke="#18BB97" stroke-width="2" stroke-linecap="round" stroke-linejoin="round"/>
<path d="M14.25 21.8333H18.3333" stroke="#18BB97" stroke-width="2" stroke-linecap="round" stroke-linejoin="round"/>
</svg>
