<svg width="32" height="32" viewBox="0 0 32 32" fill="none" xmlns="http://www.w3.org/2000/svg">
<path fill-rule="evenodd" clip-rule="evenodd" d="M13.3604 27.1905H18.523C19.0393 27.1905 19.3834 27.5524 19.3834 28.0952C19.3834 28.6381 19.0393 29 18.523 29H6.47699C5.96073 29 5.61656 28.6381 5.61656 28.0952C5.61656 27.5524 5.96073 27.1905 6.47699 27.1905H11.6396V19.7619C11.5535 19.6714 11.4675 19.6262 11.3814 19.581C11.2954 19.5357 11.2094 19.4905 11.1233 19.4L4.41195 10.8952C3.89569 10.3524 3.89569 9.62857 4.23987 9.08571C4.58404 8.3619 5.1003 8 5.78864 8H19.2114C19.8997 8 20.416 8.3619 20.7601 9.08571C21.1043 9.62857 21.1043 10.3524 20.588 11.0762L13.8767 19.581C13.7906 19.6714 13.7046 19.7167 13.6186 19.7619C13.5325 19.8071 13.4465 19.8524 13.3604 19.9429V27.1905ZM19.3834 9.80952H5.78864L12.5 18.3143L19.3834 9.80952Z" fill="#18BB97"/>
<path d="M21.4101 13.4508C22.3073 13.7186 23.2899 13.7378 24.2547 13.4523C26.9026 12.6688 28.414 9.887 27.6305 7.23908C26.8469 4.59115 24.0652 3.07977 21.4172 3.86332C20.3739 4.17207 19.5069 4.79107 18.8874 5.58988" stroke="#18BB97" stroke-width="1.8" stroke-linecap="round"/>
</svg>
