<svg width="32" height="32" viewBox="0 0 32 32" fill="none" xmlns="http://www.w3.org/2000/svg">
<path d="M11.3333 13.6667V15" stroke="#00142A" stroke-width="2" stroke-linecap="round"/>
<path fill-rule="evenodd" clip-rule="evenodd" d="M11.3333 18C11.8856 18 12.3333 18.4477 12.3333 19V20.3333C12.3333 20.8856 11.8856 21.3333 11.3333 21.3333C10.781 21.3333 10.3333 20.8856 10.3333 20.3333V19C10.3333 18.4477 10.781 18 11.3333 18Z" fill="#00142A"/>
<path fill-rule="evenodd" clip-rule="evenodd" d="M15.6667 15C15.6667 14.4477 16.1144 14 16.6667 14H24C24.5523 14 25 14.4477 25 15C25 15.5523 24.5523 16 24 16H16.6667C16.1144 16 15.6667 15.5523 15.6667 15Z" fill="#00142A"/>
<path fill-rule="evenodd" clip-rule="evenodd" d="M15.6667 19C15.6667 18.4477 16.1144 18 16.6667 18H24C24.5523 18 25 18.4477 25 19C25 19.5523 24.5523 20 24 20H16.6667C16.1144 20 15.6667 19.5523 15.6667 19Z" fill="#00142A"/>
<path fill-rule="evenodd" clip-rule="evenodd" d="M15.4107 7H25.7143C28.0714 7 30 8.97143 30 11.381V23.619C30 26.0286 28.0714 28 25.7143 28H15.7321C15.0893 28 14.4464 27.6714 14.0179 27.1238C12.25 24.6595 10.5357 24.6595 8.76786 27.1238C8.39286 27.6714 7.75 28 7.05357 28H6.28571C3.92857 28 2 26.0286 2 23.619V11.381C2 8.97143 3.92857 7 6.28571 7H7.48214C7.96429 7 8.44643 7.16429 8.76786 7.49286L9.78571 8.36905C10.75 9.13571 12.0893 9.13571 13 8.36905L14.0179 7.49286C14.4464 7.16429 14.9286 7 15.4107 7ZM25.8333 26C27.025 26 28 24.9941 28 23.7647V11.2353C28 10.0059 27.025 9 25.8333 9H15.4583L14.4292 9.89412C12.6958 11.4029 10.15 11.4029 8.41667 9.89412L7.3875 9H6.16667C4.975 9 4 10.0059 4 11.2353V23.7647C4 24.9941 4.975 26 6.16667 26H7.00833C8.30833 24.1559 9.825 23.2059 11.3958 23.2059C12.9667 23.2059 14.4833 24.1559 15.7833 26H25.8333Z" fill="#01142A"/>
</svg>
