<svg width="32" height="32" viewBox="0 0 32 32" fill="none" xmlns="http://www.w3.org/2000/svg">
<path d="M12 19.7592C12.6082 20.8574 13.7909 21.4657 15.5312 21.6008V24H17.2714V21.5671C19.4171 21.2798 20.4815 20.1816 20.4815 18.2724C20.4815 17.1404 20.0929 16.3295 19.3157 15.8057C18.7075 15.4171 18.3865 15.2988 16.7814 14.9102C14.8215 14.4372 14.1626 13.9303 14.1626 12.8659C14.1626 11.8522 14.9398 11.2439 16.2239 11.2439C17.2883 11.2439 18.0993 11.5987 18.623 12.3083L19.9747 11.4467C19.4847 10.5681 18.5723 10.0444 17.2714 9.8754V8H15.5312V9.8416C14.8384 9.92608 14.3147 10.0612 13.9261 10.264C12.963 10.7878 12.4224 11.7846 12.4224 13.0011C12.4224 14.8258 13.453 15.8226 15.9029 16.4139C16.7814 16.6167 17.3052 16.7518 17.491 16.8025C17.6769 16.8532 17.8627 16.9546 18.0824 17.1067C18.5216 17.3939 18.7413 17.8332 18.7413 18.4245C18.7413 19.5565 17.8627 20.1647 16.2914 20.1647C14.8891 20.1647 13.9092 19.7254 13.3854 18.8638L12 19.7592Z" fill="#18BB97"/>
<path fill-rule="evenodd" clip-rule="evenodd" d="M4 16.5C4 9.59644 9.59644 4 16.5 4V6C10.701 6 6 10.701 6 16.5C6 19.6494 7.38533 22.4741 9.58323 24.4001L11.9605 26.4833L8.81761 26.1465L5.26666 25.7659L5.47978 23.7773L6.40787 23.8768C4.89446 21.8095 4 19.2589 4 16.5ZM28.5 15.6522C28.5 22.5557 22.9036 28.1522 16 28.1522V26.1522C21.799 26.1522 26.5 21.4512 26.5 15.6522C26.5 12.5027 25.1147 9.67809 22.9168 7.75206L20.5395 5.66884L23.6824 6.00567L27.2333 6.38623L27.0202 8.37484L26.0921 8.27538C27.6055 10.3427 28.5 12.8933 28.5 15.6522Z" fill="#18BB97"/>
</svg>
